<svg id="Livello_1" data-name="Livello 1" xmlns="http://www.w3.org/2000/svg" viewBox="0 0 176 176"><defs><style>.cls-1{fill:#0185f9;}.cls-2{fill:#00aa4b;}.cls-3{fill:#ff4132;}.cls-4{fill:#e61b17;}.cls-5{fill:#ffbd00;}.cls-6{fill:#5d6368;}</style></defs><path class="cls-1" d="M23,102a3.06,3.06,0,0,0,3.07,3.07h7.29V87.5L23,79.74Z"/><path class="cls-2" d="M58.21,87.5v17.61H65.5A3.06,3.06,0,0,0,68.57,102V79.74Z"/><polygon class="cls-3" points="45.78 83.35 33.36 74.04 33.36 87.5 45.78 96.81 58.21 87.5 58.21 74.04 45.78 83.35"/><path class="cls-4" d="M27.61,70.89h0A4.62,4.62,0,0,0,23,75.5v4.24L33.36,87.5V74l-3-2.23A4.61,4.61,0,0,0,27.61,70.89Z"/><path class="cls-5" d="M64,70.89h0a4.61,4.61,0,0,0-2.77.92l-3,2.23V87.5l10.36-7.76V75.5A4.62,4.62,0,0,0,64,70.89Z"/><path class="cls-6" d="M98.83,79.88,97,81.81a7.42,7.42,0,0,0-3.52-2.16,8.16,8.16,0,0,0-10.29,6.11,8.63,8.63,0,0,0,2,7.92,8.34,8.34,0,0,0,11.54.43,6.61,6.61,0,0,0,2-4.59c-.19,0-.39,0-.59,0-2.13,0-4.26,0-6.39,0-.42,0-.55-.14-.53-.53s0-.94,0-1.41.09-.46.44-.46c3.06,0,6.13,0,9.19,0,.32,0,.42.11.45.42a9.71,9.71,0,0,1-9.72,11.13A10.73,10.73,0,0,1,80.37,87.22,10.61,10.61,0,0,1,90.69,76.91a10.88,10.88,0,0,1,6.75,1.82C97.93,79.07,98.36,79.49,98.83,79.88Z"/><path class="cls-6" d="M116.44,98.17h-2.55V97.6c0-2.67,0-5.34,0-8a8,8,0,0,0-.26-1.89A2.32,2.32,0,0,0,111.81,86a3.7,3.7,0,0,0-4.59,2.62,6.35,6.35,0,0,0-.27,1.84c0,2.32,0,4.64,0,7v.79h-2.54c0-.14,0-.26,0-.37V84.65c0-.67,0-.67.68-.67h1.75v2.19a5.48,5.48,0,0,1,4.74-2.65,4.61,4.61,0,0,1,4.37,2.69c.39-.44.72-.83,1.08-1.2a5.78,5.78,0,0,1,7.22-.46,5,5,0,0,1,1.69,3.34,9.47,9.47,0,0,1,.09,1.3c0,2.84,0,5.68,0,8.52v.45h-2.56v-.62c0-2.62,0-5.23,0-7.85a8.62,8.62,0,0,0-.34-2.19A2.19,2.19,0,0,0,121.39,86c-2.73-.7-4.42,1.18-4.84,3.36a8.88,8.88,0,0,0-.1,1.71C116.44,93.39,116.44,95.75,116.44,98.17Z"/><path class="cls-6" d="M138.38,89.83a3.39,3.39,0,0,0-2-3.66c-1.72-.87-3.59-.37-5.34,1.46l-2.23-1.4a6.06,6.06,0,0,1,3.89-2.54,9,9,0,0,1,4.52.23,5.34,5.34,0,0,1,3.64,5.31c0,2.86,0,5.72,0,8.57v.35h-2.46V96.08c-.45.49-.77.87-1.12,1.22-2.68,2.6-7.77,1.33-8.79-2.19a4.39,4.39,0,0,1,2.62-5.48,9.07,9.07,0,0,1,6.7,0Zm-4.89,6.54c.31,0,.55,0,.56,0a4.62,4.62,0,0,0,4.34-3.71.74.74,0,0,0-.43-.93,5.83,5.83,0,0,0-5.72,0,2.29,2.29,0,0,0-.05,4.09A3.2,3.2,0,0,0,133.49,96.37Z"/><path class="cls-6" d="M153,98.17h-2.49V77.4H153Z"/><path class="cls-6" d="M146.85,84V98.16h-2.52c0-.17,0-.33,0-.5,0-4.34,0-8.68,0-13,0-.73,0-.63.66-.67C145.85,84,146.18,84,146.85,84Z"/><path class="cls-6" d="M145.6,77.13A1.78,1.78,0,0,1,147.41,79a1.81,1.81,0,0,1-1.87,1.81,1.83,1.83,0,1,1,.06-3.66Z"/></svg>