<?xml version="1.0" encoding="UTF-8"?>
<svg id="Layer_1" data-name="Layer 1" xmlns="http://www.w3.org/2000/svg" viewBox="0 0 573.33 210.98">
  <defs>
    <style>
      .cls-1 {
        fill: #a01c40;
      }
    </style>
  </defs>
  <path class="cls-1" d="m27.89,64.13c-5.02,5.77-10.64,11.18-15.61,17.02,2.29,1.71,4.29,3.92,6.17,5.95,2.7,2.91,5.37,5.84,7.97,8.84,5.32,6.13,10.2,12.68,14.98,19.23,9.53,13.05,17.97,26.71,25.68,40.91,4.65,8.58-12.29,18.25-16.84,9.72-7.48-13.99-15.68-27.66-24.33-40.97-4.33-6.65-8.98-13.06-13.45-19.6-2.22-3.26-4.46-6.5-6.76-9.71-2.21-3.09-4.85-6.43-5.61-10.22-.6-3.03,2.05-5.29,4.82-6.14,6.2-5.63,11.68-12.44,17.17-18.7,5.77-6.58,11.4-13.29,16.88-20.12,5.48-6.83,10.8-13.78,15.99-20.84,2.66-3.61,5.27-7.26,7.84-10.93,2.24-3.2,4.12-7.35,8.18-8.42.72-.19,1.89-.24,2.28.59,1.65,3.49-2.1,7.11-3.94,9.8-2.52,3.69-5.09,7.36-7.7,11-5.22,7.27-10.61,14.42-16.17,21.44-5.69,7.18-11.54,14.24-17.56,21.15Z"/>
  <path class="cls-1" d="m192.29,91.17c-2.67,1.66-5.42,1.32-8.47,1.35-3.19.04-6.38.08-9.57.13-4.01.07-8.02.17-12.03.29.26,11.24.52,22.48.78,33.71.13,5.75.26,11.5.4,17.24.14,6.09,1.41,13.02-.22,18.88-1.33,4.75-4.69,8.06-9.55,9.16-4.36.99-8.32-.54-9.72-4.91-1.13-3.52-.64-6.78-.48-10.4.12-2.78.11-5.58.17-8.36.12-6.03.25-12.07.37-18.1.24-11.61.47-23.21.71-34.82.01-.54.02-1.07.03-1.61-2.88.17-5.77.36-8.65.6-3.15.26-6.29.38-9.44.56-1.34.08-2.69.16-4.03.26-.85.06-2.13-.03-3.27.05-.39.56-1.1.97-1.72,1.03-1.81.18-3.47-.93-2.96-2.94.69-2.73,4.48-3.54,6.77-4,7.78-1.55,15.54-2.45,23.44-2.94.18-8.84.36-17.68.54-26.52.12-5.8.19-11.61.36-17.41.08-2.8.29-5.59.47-8.39.21-3.34.07-6.71,1.45-9.81,1.58-3.57,8.77-7.17,11.3-2.56,1.54,2.8,1.32,6.09,1.53,9.22.18,2.72.4,5.45.49,8.18.19,5.98.28,11.96.41,17.93.22,9.59.44,19.17.66,28.76,3.03-.04,6.05-.07,9.08-.07,3.96,0,7.93,0,11.89.04,3.17.02,7.96-.99,10.4,1.35,1.43,1.37.22,3.26-1.13,4.1Z"/>
  <path class="cls-1" d="m335.26,207.1c-3.96,2.03-8.23,1.39-12.58,1.37-4.18-.02-8.36,0-12.55.04-8.29.08-16.57.27-24.86.56-8.5.3-17,.78-25.5,1.1-4.12.15-8.24.34-12.36.54-3.71.19-7.34.68-10.92-.55-2.27-.78-1.01-3.83.59-4.57,3.92-1.79,7.83-2.11,12.08-2.54,4.38-.44,8.76-.86,13.14-1.24,8.27-.72,16.57-1.06,24.86-1.38,8.52-.33,17.04-.56,25.56-.67,4.38-.06,8.75-.09,13.13-.09,3.64,0,8.01-.86,11.04,1.46,2.24,1.71.21,5.02-1.65,5.97Z"/>
  <path class="cls-1" d="m456.7,91.17c-2.67,1.66-5.42,1.32-8.47,1.35-3.19.04-6.38.08-9.57.13-4.01.07-8.02.17-12.03.29.26,11.24.52,22.48.78,33.71.13,5.75.27,11.5.4,17.24.14,6.09,1.41,13.02-.22,18.88-1.33,4.75-4.69,8.06-9.55,9.16-4.36.99-8.32-.54-9.72-4.91-1.13-3.52-.64-6.78-.48-10.4.12-2.78.11-5.58.17-8.36.12-6.03.25-12.07.37-18.1.24-11.61.47-23.21.71-34.82,0-.54.02-1.07.03-1.61-2.88.17-5.77.36-8.65.6-3.15.26-6.29.38-9.44.56-1.34.08-2.68.16-4.03.26-.85.06-2.13-.03-3.27.05-.39.56-1.1.97-1.72,1.03-1.81.18-3.47-.93-2.96-2.94.69-2.73,4.48-3.54,6.78-4,7.77-1.55,15.54-2.45,23.44-2.94.18-8.84.36-17.68.54-26.52.12-5.8.19-11.61.36-17.41.08-2.8.29-5.59.47-8.39.21-3.34.08-6.71,1.45-9.81,1.58-3.57,8.77-7.17,11.3-2.56,1.53,2.8,1.32,6.09,1.52,9.22.18,2.72.4,5.45.49,8.18.19,5.98.28,11.96.41,17.93.22,9.59.44,19.17.66,28.76,3.03-.04,6.05-.07,9.08-.07,3.96,0,7.93,0,11.89.04,3.17.02,7.96-.99,10.4,1.35,1.43,1.37.22,3.26-1.13,4.1Z"/>
  <path class="cls-1" d="m573.22,82.91c-1.01,3.94-3.66,7.4-6.06,10.65-2.33,3.15-4.62,6.34-6.86,9.55-4.4,6.31-8.94,12.51-13.19,18.93-8.56,12.93-16.63,26.26-23.94,39.93-2.28,4.25-6.85,7.52-11.91,6.87-4.16-.53-7.35-4.88-5.16-8.93,7.96-14.69,16.61-28.92,26.38-42.48,4.79-6.65,9.66-13.3,15-19.52,2.63-3.06,5.3-6.09,8.01-9.08,1.83-2.02,3.72-4.21,5.83-6.07-1.19-1.24-3.05-2.9-3.42-3.3-1.59-1.72-3.18-3.45-4.75-5.19-2.86-3.17-5.69-6.36-8.48-9.59-5.63-6.51-11.13-13.14-16.49-19.88-5.43-6.85-10.72-13.81-15.83-20.91-2.62-3.63-5.19-7.3-7.73-10.99-2.19-3.18-5.88-6.67-4.76-10.78.34-1.24,1.57-2.31,2.94-2.1,4.42.67,6.12,4.93,8.48,8.29,2.46,3.49,4.95,6.96,7.48,10.39,5.19,7.05,10.52,13.99,16,20.82,5.56,6.93,11.29,13.72,17.17,20.38,5.56,6.3,11.11,13.46,17.54,18.95,2.07.29,4.37,1.55,3.73,4.04Z"/>
</svg>