<?xml version="1.0" encoding="utf-8"?>
<!-- Generator: Adobe Illustrator 27.5.0, SVG Export Plug-In . SVG Version: 6.00 Build 0)  -->
<svg version="1.1" id="Layer_1" xmlns="http://www.w3.org/2000/svg" xmlns:xlink="http://www.w3.org/1999/xlink" x="0px" y="0px"
	 viewBox="0 0 595.28 229.27" style="enable-background:new 0 0 595.28 229.27;" xml:space="preserve">
<g>
	<path d="M38.86,69.52c-5.02,5.77-10.64,11.18-15.61,17.02c2.29,1.71,4.29,3.92,6.17,5.95c2.7,2.91,5.37,5.84,7.97,8.84
		c5.32,6.13,10.2,12.68,14.98,19.23c9.53,13.05,17.97,26.71,25.68,40.91c4.65,8.58-12.29,18.25-16.84,9.72
		c-7.48-13.99-15.68-27.66-24.33-40.97c-4.33-6.65-8.98-13.06-13.45-19.6c-2.22-3.26-4.46-6.5-6.76-9.71
		c-2.21-3.09-4.85-6.43-5.61-10.22c-0.6-3.03,2.05-5.29,4.82-6.14c6.2-5.63,11.68-12.44,17.17-18.7
		c5.77-6.58,11.4-13.29,16.88-20.12c5.48-6.83,10.8-13.78,15.99-20.84c2.66-3.61,5.27-7.26,7.84-10.93c2.24-3.2,4.12-7.35,8.18-8.42
		c0.72-0.19,1.89-0.24,2.28,0.59c1.65,3.49-2.1,7.11-3.94,9.8c-2.52,3.69-5.09,7.36-7.7,11c-5.22,7.27-10.61,14.42-16.17,21.44
		C50.73,55.56,44.87,62.61,38.86,69.52z"/>
	<path d="M203.26,96.57c-2.67,1.66-5.42,1.32-8.47,1.35c-3.19,0.04-6.38,0.08-9.57,0.13c-4.01,0.07-8.02,0.17-12.03,0.29
		c0.26,11.24,0.52,22.48,0.78,33.71c0.13,5.75,0.26,11.5,0.4,17.24c0.14,6.09,1.41,13.02-0.22,18.88c-1.33,4.75-4.69,8.06-9.55,9.16
		c-4.36,0.99-8.32-0.54-9.72-4.91c-1.13-3.52-0.64-6.78-0.48-10.4c0.12-2.78,0.11-5.58,0.17-8.36c0.12-6.03,0.25-12.07,0.37-18.1
		c0.24-11.61,0.47-23.21,0.71-34.82c0.01-0.54,0.02-1.07,0.03-1.61c-2.88,0.17-5.77,0.36-8.65,0.6c-3.15,0.26-6.29,0.38-9.44,0.56
		c-1.34,0.08-2.69,0.16-4.03,0.26c-0.85,0.06-2.13-0.03-3.27,0.05c-0.39,0.56-1.1,0.97-1.72,1.03c-1.81,0.18-3.47-0.93-2.96-2.94
		c0.69-2.73,4.48-3.54,6.77-4c7.78-1.55,15.54-2.45,23.44-2.94c0.18-8.84,0.36-17.68,0.54-26.52c0.12-5.8,0.19-11.61,0.36-17.41
		c0.08-2.8,0.29-5.59,0.47-8.39c0.21-3.34,0.07-6.71,1.45-9.81c1.58-3.57,8.77-7.17,11.3-2.56c1.54,2.8,1.32,6.09,1.53,9.22
		c0.18,2.72,0.4,5.45,0.49,8.18c0.19,5.98,0.28,11.96,0.41,17.93c0.22,9.59,0.44,19.17,0.66,28.76c3.03-0.04,6.05-0.07,9.08-0.07
		c3.96-0.01,7.93,0.01,11.89,0.04c3.17,0.02,7.96-0.99,10.4,1.35C205.83,93.83,204.62,95.72,203.26,96.57z"/>
	<path d="M346.24,212.49c-3.96,2.03-8.23,1.39-12.58,1.37c-4.18-0.02-8.36,0-12.55,0.04c-8.29,0.08-16.57,0.27-24.86,0.56
		c-8.5,0.3-17,0.78-25.5,1.1c-4.12,0.15-8.24,0.34-12.36,0.54c-3.71,0.19-7.34,0.68-10.92-0.55c-2.27-0.78-1.01-3.83,0.59-4.57
		c3.92-1.79,7.83-2.11,12.08-2.54c4.38-0.44,8.76-0.86,13.14-1.24c8.27-0.72,16.57-1.06,24.86-1.38c8.52-0.33,17.04-0.56,25.56-0.67
		c4.38-0.06,8.75-0.09,13.13-0.09c3.64,0,8.01-0.86,11.04,1.46C350.12,208.24,348.1,211.54,346.24,212.49z"/>
	<path d="M467.67,96.57c-2.67,1.66-5.42,1.32-8.47,1.35c-3.19,0.04-6.38,0.08-9.57,0.13c-4.01,0.07-8.02,0.17-12.03,0.29
		c0.26,11.24,0.52,22.48,0.78,33.71c0.13,5.75,0.27,11.5,0.4,17.24c0.14,6.09,1.41,13.02-0.22,18.88c-1.33,4.75-4.69,8.06-9.55,9.16
		c-4.36,0.99-8.32-0.54-9.72-4.91c-1.13-3.52-0.64-6.78-0.48-10.4c0.12-2.78,0.11-5.58,0.17-8.36c0.12-6.03,0.25-12.07,0.37-18.1
		c0.24-11.61,0.47-23.21,0.71-34.82c0.01-0.54,0.02-1.07,0.03-1.61c-2.88,0.17-5.77,0.36-8.65,0.6c-3.15,0.26-6.29,0.38-9.44,0.56
		c-1.34,0.08-2.68,0.16-4.03,0.26c-0.85,0.06-2.13-0.03-3.27,0.05c-0.39,0.56-1.1,0.97-1.72,1.03c-1.81,0.18-3.47-0.93-2.96-2.94
		c0.69-2.73,4.48-3.54,6.78-4c7.77-1.55,15.54-2.45,23.44-2.94c0.18-8.84,0.36-17.68,0.54-26.52c0.12-5.8,0.19-11.61,0.36-17.41
		c0.08-2.8,0.29-5.59,0.47-8.39c0.21-3.34,0.08-6.71,1.45-9.81c1.58-3.57,8.77-7.17,11.3-2.56c1.53,2.8,1.32,6.09,1.52,9.22
		c0.18,2.72,0.4,5.45,0.49,8.18c0.19,5.98,0.28,11.96,0.41,17.93c0.22,9.59,0.44,19.17,0.66,28.76c3.03-0.04,6.05-0.07,9.08-0.07
		c3.96-0.01,7.93,0.01,11.89,0.04c3.17,0.02,7.96-0.99,10.4,1.35C470.24,93.83,469.03,95.72,467.67,96.57z"/>
	<path d="M584.2,88.3c-1.01,3.94-3.66,7.4-6.06,10.65c-2.33,3.15-4.62,6.34-6.86,9.55c-4.4,6.31-8.94,12.51-13.19,18.93
		c-8.56,12.93-16.63,26.26-23.94,39.93c-2.28,4.25-6.85,7.52-11.91,6.87c-4.16-0.53-7.35-4.88-5.16-8.93
		c7.96-14.69,16.61-28.92,26.38-42.48c4.79-6.65,9.66-13.3,15-19.52c2.63-3.06,5.3-6.09,8.01-9.08c1.83-2.02,3.72-4.21,5.83-6.07
		c-1.19-1.24-3.05-2.9-3.42-3.3c-1.59-1.72-3.18-3.45-4.75-5.19c-2.86-3.17-5.69-6.36-8.48-9.59c-5.63-6.51-11.13-13.14-16.49-19.88
		c-5.43-6.85-10.72-13.81-15.83-20.91c-2.62-3.63-5.19-7.3-7.73-10.99c-2.19-3.18-5.88-6.67-4.76-10.78
		c0.34-1.24,1.57-2.31,2.94-2.1c4.42,0.67,6.12,4.93,8.48,8.29c2.46,3.49,4.95,6.96,7.48,10.39c5.19,7.05,10.52,13.99,16,20.82
		c5.56,6.93,11.29,13.72,17.17,20.38c5.56,6.3,11.11,13.46,17.54,18.95C582.53,84.55,584.83,85.81,584.2,88.3z"/>
</g>
</svg>
