<?xml version="1.0" encoding="UTF-8"?>
<svg id="Trace" xmlns="http://www.w3.org/2000/svg" version="1.1" viewBox="0 0 948 840">
  <defs>
    <style>
      .cls-1 {
        opacity: .7;
      }

      .cls-1, .cls-2, .cls-3, .cls-4, .cls-5, .cls-6, .cls-7, .cls-8, .cls-9, .cls-10 {
        stroke-width: 0px;
      }

      .cls-1, .cls-2, .cls-6, .cls-7, .cls-10 {
        fill: #04fb94;
      }

      .cls-11 {
        fill: #424242;
        font-family: FranklinGothic-Medium, 'Franklin Gothic Medium';
        font-size: 521.88px;
        font-weight: 500;
      }

      .cls-2 {
        opacity: .9;
      }

      .cls-3 {
        opacity: .8;
      }

      .cls-3, .cls-4, .cls-5, .cls-8, .cls-9 {
        fill: #34624c;
      }

      .cls-4 {
        opacity: .6;
      }

      .cls-5 {
        opacity: .4;
      }

      .cls-6 {
        opacity: .5;
      }

      .cls-9 {
        opacity: .95;
      }

      .cls-10 {
        opacity: .3;
      }
    </style>
  </defs>
  <path class="cls-7" d="M681.58,0h-415.17c-20.98,0-40.36,11.21-50.82,29.4L7.8,390.78c-10.4,18.09-10.4,40.35,0,58.45l207.79,361.37c10.46,18.19,29.84,29.4,50.82,29.4h415.17c20.98,0,40.36-11.21,50.82-29.4l207.79-361.37c10.4-18.09,10.4-40.35,0-58.45L732.41,29.4C721.95,11.21,702.57,0,681.58,0Z"/>
  <path class="cls-8" d="M652.02,50h-356.05c-21.01,0-40.42,11.25-50.87,29.48L66.7,390.85c-10.34,18.05-10.34,40.24,0,58.29l178.41,311.37c10.45,18.23,29.85,29.48,50.87,29.48h356.05c21.01,0,40.42-11.25,50.87-29.48l178.41-311.37c10.34-18.05,10.34-40.24,0-58.29l-178.41-311.37c-10.45-18.23-29.85-29.48-50.87-29.48Z"/>
  <path class="cls-7" d="M295.98,760c-10.23,0-19.75-5.52-24.84-14.39L92.73,434.23c-5.03-8.78-5.03-19.68,0-28.46L271.14,94.39c5.09-8.88,14.6-14.39,24.84-14.39h356.05c10.23,0,19.75,5.52,24.84,14.39l178.41,311.37c5.03,8.78,5.03,19.68,0,28.46l-178.41,311.38c-5.09,8.88-14.6,14.39-24.84,14.39h-356.05Z"/>
  <path class="cls-9" d="M295.98,740c-3.08,0-5.95-1.66-7.48-4.34L110.08,424.29c-1.52-2.64-1.52-5.93,0-8.58L288.49,104.34c1.53-2.68,4.4-4.34,7.48-4.34h356.05c3.08,0,5.95,1.66,7.48,4.34l178.41,311.37c1.51,2.64,1.51,5.93,0,8.58l-178.41,311.37c-1.53,2.67-4.4,4.34-7.48,4.34h-356.05Z"/>
  <polygon class="cls-2" points="305.47 715 136.44 420 305.47 125 642.53 125 811.56 420 642.53 715 305.47 715"/>
  <polygon class="cls-3" points="314.16 700 153.73 420 314.16 140 633.84 140 794.27 420 633.84 700 314.16 700"/>
  <polygon class="cls-1" points="325.75 680 176.78 420 325.75 160 622.25 160 771.22 420 622.25 680 325.75 680"/>
  <polygon class="cls-4" points="331.54 670 188.3 420 331.55 170 616.46 170 759.7 420 616.46 670 331.54 670"/>
  <polygon class="cls-6" points="340.24 655 205.59 420 340.24 185 607.76 185 742.41 420 607.76 655 340.24 655"/>
  <polygon class="cls-5" points="343.14 650 211.35 420 343.14 190 604.86 190 736.65 420 604.86 650 343.14 650"/>
  <polygon class="cls-10" points="346.03 645 217.11 420 346.03 195 601.97 195 730.88 420 601.97 645 346.03 645"/>
  <text class="cls-11" transform="translate(347.86 597.54)"><tspan x="0" y="0">T</tspan></text>
</svg>